HIERARCHY
ROOT Hips
{
	OFFSET 0.00000 0.00000 0.00000
	CHANNELS 6 Xposition Yposition Zposition Zrotation Yrotation Xrotation 
	JOINT LHipJoint
	{
		OFFSET 0 0 0
		CHANNELS 3 Zrotation Yrotation Xrotation
		JOINT LeftUpLeg
		{
			OFFSET 1.75344 -1.53157 0.77399
			CHANNELS 3 Zrotation Yrotation Xrotation
			JOINT LeftLeg
			{
				OFFSET 2.25415 -6.19323 0.00000
				CHANNELS 3 Zrotation Yrotation Xrotation
				JOINT LeftFoot
				{
					OFFSET 2.30342 -6.32861 0.00000
					CHANNELS 3 Zrotation Yrotation Xrotation
					JOINT LeftToeBase
					{
						OFFSET 0.10958 -0.30108 1.49206
						CHANNELS 3 Zrotation Yrotation Xrotation
						End Site
						{
							OFFSET 0.00000 -0.00000 0.77783
						}
					}
				}
			}
		}
	}
	JOINT RHipJoint
	{
		OFFSET 0 0 0
		CHANNELS 3 Zrotation Yrotation Xrotation
		JOINT RightUpLeg
		{
			OFFSET -1.81912 -1.53156 0.77399
			CHANNELS 3 Zrotation Yrotation Xrotation
			JOINT RightLeg
			{
				OFFSET -2.22882 -6.12365 0.00000
				CHANNELS 3 Zrotation Yrotation Xrotation
				JOINT RightFoot
				{
					OFFSET -2.21943 -6.09785 0.00000
					CHANNELS 3 Zrotation Yrotation Xrotation
					JOINT RightToeBase
					{
						OFFSET -0.18931 -0.52012 1.59379
						CHANNELS 3 Zrotation Yrotation Xrotation
						End Site
						{
							OFFSET -0.00000 -0.00000 0.84686
						}
					}
				}
			}
		}
	}
	JOINT LowerBack
	{
		OFFSET 0 0 0
		CHANNELS 3 Zrotation Yrotation Xrotation
		JOINT Spine
		{
			OFFSET -0.00200 1.66634 -0.14248
			CHANNELS 3 Zrotation Yrotation Xrotation
			JOINT Spine1
			{
				OFFSET -0.00875 1.64542 0.09514
				CHANNELS 3 Zrotation Yrotation Xrotation
				JOINT Neck
				{
					OFFSET 0 0 0
					CHANNELS 3 Zrotation Yrotation Xrotation
					JOINT Neck1
					{
						OFFSET 0.02257 1.59605 0.00839
						CHANNELS 3 Zrotation Yrotation Xrotation
						JOINT Head
						{
							OFFSET -0.10214 1.57530 -0.23335
							CHANNELS 3 Zrotation Yrotation Xrotation
							End Site
							{
								OFFSET -0.03588 1.60717 -0.08062
							}
						}
					}
				}
				JOINT LeftShoulder
				{
					OFFSET 0 0 0
					CHANNELS 3 Zrotation Yrotation Xrotation
					JOINT LeftArm
					{
						OFFSET 2.54983 1.10186 0.40078
						CHANNELS 3 Zrotation Yrotation Xrotation
						JOINT LeftForeArm
						{
							OFFSET 4.28840 -0.00000 0.00000
							CHANNELS 3 Zrotation Yrotation Xrotation
							JOINT LeftHand
							{
								OFFSET 3.06552 -0.00000 -0.00000
								CHANNELS 3 Zrotation Yrotation Xrotation
								JOINT LeftFingerBase
								{
									OFFSET 0 0 0
									CHANNELS 3 Zrotation Yrotation Xrotation
									JOINT LeftHandIndex1
									{
										OFFSET 0.75304 -0.00000 0.00000
										CHANNELS 3 Zrotation Yrotation Xrotation
										End Site
										{
											OFFSET 0.60712 -0.00000 0.00000
										}
									}
								}
								JOINT LThumb
								{
									OFFSET 0 0 0
									CHANNELS 3 Zrotation Yrotation Xrotation
									End Site
									{
										OFFSET 0.61639 -0.00000 0.61639
									}
								}
							}
						}
					}
				}
				JOINT RightShoulder
				{
					OFFSET 0 0 0
					CHANNELS 3 Zrotation Yrotation Xrotation
					JOINT RightArm
					{
						OFFSET -2.60909 1.35448 0.21802
						CHANNELS 3 Zrotation Yrotation Xrotation
						JOINT RightForeArm
						{
							OFFSET -4.52172 -0.00000 -0.00000
							CHANNELS 3 Zrotation Yrotation Xrotation
							JOINT RightHand
							{
								OFFSET -2.89140 -0.00000 0.00000
								CHANNELS 3 Zrotation Yrotation Xrotation
								JOINT RightFingerBase
								{
									OFFSET 0 0 0
									CHANNELS 3 Zrotation Yrotation Xrotation
									JOINT RightHandIndex1
									{
										OFFSET -0.68054 -0.00000 0.00000
										CHANNELS 3 Zrotation Yrotation Xrotation
										End Site
										{
											OFFSET -0.54867 -0.00000 0.00000
										}
									}
								}
								JOINT RThumb
								{
									OFFSET 0 0 0
									CHANNELS 3 Zrotation Yrotation Xrotation
									End Site
									{
										OFFSET -0.55705 -0.00000 0.55705
									}
								}
							}
						}
					}
				}
			}
		}
	}
}
MOTION
Frames: 9
Frame Time: .0083333
9.6314 15.6354 -4.3252 -178.5320 -9.8052 179.2890 0.0000 0.0000 0.0000 -19.0930 -1.3702 7.5524 5.6802 14.1111 43.6845 0.5745 -1.0821 14.7500 0.1622 -2.5944 -7.1516 0.0000 0.0000 0.0000 28.6629 24.0665 -0.4294 -0.5485 -4.7448 13.1820 2.6255 -29.1138 -22.8065 -0.8477 -5.8724 16.4147 -0.7047 0.1894 4.9710 0.0789 0.0126 -5.5793 0.4888 -0.0237 -8.6665 -9.2561 -4.8248 -9.1646 8.9259 -7.9556 20.1346 3.6682 -4.0213 8.4684 0.0000 0.0000 0.0000 -84.0875 20.3392 31.8090 20.5148 -31.2575 -5.7961 -0.0000 -0.0000 20.0986 -2.3066 -32.8105 1.2503 -7.1250 0.0000 -0.0000 -19.0260 -1.3222 20.6214 0.0000 0.0000 0.0000 81.3717 -17.1070 35.2828 -18.8064 29.1774 -4.9361 0.0000 0.0000 13.9280 5.2987 -55.2466 -4.3575 7.1250 -0.0000 -0.0000 81.4078 -70.0632 -59.8839
9.6510 15.6448 -4.4508 -178.4460 -10.0422 179.1510 0.0000 0.0000 0.0000 -18.7301 -1.6558 6.3732 6.2250 14.6429 45.8781 0.7011 -0.5411 16.0258 0.0861 -1.8926 -5.2089 0.0000 0.0000 0.0000 29.1446 23.5199 0.4367 -0.4990 -4.5286 12.5687 2.6621 -29.1837 -22.5728 -0.9482 -6.2014 17.3700 -0.6209 0.1629 5.0532 0.0797 -0.0033 -5.4491 0.4437 -0.0323 -8.5728 -9.2783 -4.9789 -9.3296 8.8183 -8.1494 20.3008 3.6093 -4.1193 8.5718 -0.0000 -0.0000 0.0000 -83.7724 20.0013 31.7488 20.5556 -31.3059 -5.8173 -0.0000 -0.0000 18.8880 -1.0364 -32.9694 0.5641 -7.1250 0.0000 -0.0000 -18.3472 -1.5574 19.8760 -0.0000 -0.0000 0.0000 81.1856 -16.8959 35.7783 -19.0593 29.4922 -5.0600 0.0000 0.0000 13.8421 5.3979 -55.1358 -4.4333 7.1250 -0.0000 -0.0000 81.1551 -70.0076 -59.5631
9.6717 15.6480 -4.5706 -178.2770 -10.2556 179.0620 0.0000 0.0000 0.0000 -18.2481 -1.8929 5.0727 6.7928 15.1549 48.0862 0.8273 0.1008 17.1596 0.0198 -0.9081 -2.4959 0.0000 0.0000 0.0000 29.6786 22.9888 1.2219 -0.4475 -4.2921 11.8999 2.9183 -29.7360 -21.0273 -0.6081 -4.9912 13.8836 -0.4975 0.1463 5.0552 0.1174 -0.0038 -5.3582 0.4136 -0.0361 -8.4748 -9.1937 -5.0234 -9.1874 8.6927 -8.1831 20.1343 3.5512 -4.1392 8.4843 -0.0000 -0.0000 0.0000 -83.4569 19.8772 31.6909 20.7725 -31.5619 -5.9304 -0.0000 -0.0000 17.4586 0.0685 -33.0083 -0.0373 -7.1250 0.0000 -0.0000 -17.7547 -1.6765 19.2021 -0.0000 -0.0000 0.0000 81.0008 -16.6076 36.2166 -19.1816 29.6437 -5.1204 0.0000 0.0000 13.7482 4.7227 -54.7594 -3.8601 7.1250 -0.0000 -0.0000 79.8441 -70.1587 -58.4570
9.6931 15.6501 -4.6859 -177.8360 -10.4093 179.0210 0.0000 0.0000 0.0000 -17.4574 -2.1376 3.5821 7.3892 15.6510 50.3313 0.8900 0.4533 17.6850 0.0084 -0.5924 -1.6277 0.0000 0.0000 0.0000 30.4327 22.3782 1.7981 -0.3982 -4.0513 11.2212 3.2073 -30.2923 -18.3974 -0.1620 -2.5934 7.1486 -0.0517 0.1719 5.0342 0.1816 0.0754 -5.3633 0.2215 -0.0228 -8.4673 -9.3451 -5.0601 -8.9189 8.8695 -8.2798 20.0702 3.6311 -4.1931 8.4367 -0.0000 0.0000 0.0000 -83.0133 20.0575 31.7479 21.1275 -31.9768 -6.1173 -0.0000 -0.0000 15.9758 1.3461 -33.2134 -0.7374 -7.1250 0.0000 -0.0000 -17.0696 -1.9766 18.4769 -0.0000 0.0000 0.0000 80.8770 -16.4480 36.6699 -19.2874 29.7743 -5.1728 0.0000 0.0000 13.3880 2.8012 -54.2085 -2.2728 7.1250 -0.0000 -0.0000 77.4482 -70.6911 -56.7875
9.7136 15.6533 -4.8025 -177.3890 -10.5785 178.9340 0.0000 0.0000 0.0000 -16.6885 -2.3946 2.1155 8.0035 16.1218 52.5752 0.8432 0.2116 17.2874 0.0561 -1.5285 -4.2043 0.0000 0.0000 0.0000 31.2305 21.8360 2.5336 -0.3480 -3.7905 10.4880 3.2244 -30.3221 -18.1782 -0.1682 -2.6417 7.2829 0.4629 0.2162 5.0984 0.2277 0.1842 -5.3911 -0.0318 -0.0003 -8.5339 -9.6292 -5.1355 -8.9564 9.1532 -8.4525 20.3308 3.7547 -4.2801 8.5736 -0.0000 0.0000 0.0000 -82.6075 20.1812 31.7373 21.4318 -32.3289 -6.2793 -0.0000 -0.0000 14.6585 2.4173 -33.1326 -1.3218 -7.1250 0.0000 -0.0000 -16.4889 -1.9952 17.7965 -0.0000 0.0000 0.0000 80.7786 -16.3132 36.9060 -19.4193 29.9364 -5.2385 0.0000 0.0000 13.2533 2.2050 -53.9537 -1.7831 7.1250 -0.0000 -0.0000 76.4562 -70.8341 -56.0118
9.7295 15.6503 -4.9182 -177.1430 -10.7256 178.7790 0.0000 0.0000 0.0000 -16.2184 -2.6382 0.7889 8.6140 16.5528 54.7454 0.7591 -0.0782 16.4965 0.1191 -2.2253 -6.1287 0.0000 0.0000 0.0000 31.8511 21.3325 3.4885 -0.2986 -3.5139 9.7129 3.0236 -29.9135 -20.0590 -0.5375 -4.6977 13.0484 0.8316 0.2805 5.2533 0.2231 0.3091 -5.3787 -0.2596 0.0389 -8.6094 -9.8207 -5.1824 -8.8412 9.3422 -8.5534 20.3577 3.8422 -4.3327 8.5887 0.0000 0.0000 0.0000 -82.2353 20.1458 31.7328 21.6123 -32.5361 -6.3761 -0.0000 -0.0000 13.3971 3.9059 -32.9796 -2.1285 -7.1250 0.0000 -0.0000 -15.6752 -1.9930 16.8454 0.0000 0.0000 0.0000 80.6603 -16.0096 36.9430 -19.4232 29.9411 -5.2404 0.0000 0.0000 13.5023 3.1775 -54.0121 -2.5719 7.1250 -0.0000 -0.0000 77.0918 -70.5134 -56.2250
9.7441 15.6432 -5.0301 -176.9610 -10.8187 178.6500 0.0000 0.0000 0.0000 -15.8403 -2.8550 -0.5241 9.2078 16.9396 56.8062 0.6810 -0.2400 15.6829 0.0867 -1.8995 -5.2280 0.0000 0.0000 0.0000 32.3354 20.6904 4.2373 -0.2604 -3.2828 9.0672 2.8696 -29.5041 -20.8042 -0.7645 -5.5834 15.5804 1.0597 0.3232 5.3547 0.2399 0.3954 -5.3273 -0.3815 0.0697 -8.6111 -9.5355 -5.2309 -8.5223 8.9790 -8.5783 20.1067 3.6746 -4.3590 8.4197 0.0000 0.0000 0.0000 -82.1157 19.8293 31.0656 21.4952 -32.4018 -6.3132 -0.0000 -0.0000 12.4618 5.6121 -33.4274 -3.0985 -7.1250 0.0000 -0.0000 -14.7625 -2.6068 15.9479 0.0000 0.0000 0.0000 80.5264 -15.5377 37.1228 -19.3059 29.7970 -5.1820 0.0000 0.0000 13.5243 3.3169 -53.9724 -2.6835 7.1250 -0.0000 -0.0000 77.0528 -70.4554 -56.1158
9.7586 15.6391 -5.1405 -176.7910 -10.8295 178.6290 0.0000 0.0000 0.0000 -15.5040 -3.0893 -1.9418 9.7731 17.2802 58.7272 0.5241 -0.6401 13.9222 0.1783 -2.7199 -7.4998 0.0000 0.0000 0.0000 32.7640 20.2394 4.7517 -0.2374 -3.1356 8.6565 3.0185 -29.7892 -19.5260 -0.4884 -4.4809 12.4338 1.2261 0.3731 5.3113 0.2758 0.4817 -5.2879 -0.4477 0.1043 -8.5406 -9.1284 -5.3229 -8.6030 8.3348 -8.6452 20.3108 3.3785 -4.4142 8.4641 -0.0000 0.0000 0.0000 -82.1883 19.3966 30.0471 21.6840 -32.6180 -6.4146 -0.0000 -0.0000 10.6849 4.9474 -32.9530 -2.6959 -7.1250 0.0000 -0.0000 -15.1050 -2.0763 16.2082 -0.0000 0.0000 0.0000 80.3851 -15.0983 37.3010 -19.2624 29.7435 -5.1604 0.0000 0.0000 13.5122 2.3956 -53.6445 -1.9297 7.1250 -0.0000 -0.0000 75.6985 -70.6879 -55.1100
9.7747 15.6360 -5.2514 -176.6830 -10.8314 178.6180 0.0000 0.0000 0.0000 -15.2580 -3.3862 -3.3652 10.3113 17.5812 60.5237 0.4175 -1.0228 12.6193 0.1647 -2.6150 -7.2087 0.0000 0.0000 0.0000 33.1604 19.8005 5.2242 -0.2238 -3.0455 8.4054 3.0643 -29.8260 -18.7918 -0.3634 -3.8723 10.7178 1.3441 0.4608 5.2914 0.2800 0.6109 -5.2777 -0.5255 0.1608 -8.5146 -9.6449 -5.1885 -7.7842 9.1901 -8.5674 19.6221 3.7828 -4.3659 8.1343 0.0000 0.0000 0.0000 -82.0708 19.1691 29.3920 21.8264 -32.7802 -6.4916 -0.0000 -0.0000 9.5126 6.0566 -33.5093 -3.3524 -7.1250 0.0000 -0.0000 -14.5241 -2.7367 15.7046 0.0000 0.0000 0.0000 80.2535 -14.7578 37.4249 -19.2868 29.7735 -5.1725 0.0000 0.0000 13.5032 1.5531 -53.7848 -1.2532 7.1250 -0.0000 -0.0000 75.6661 -71.0167 -55.4828
